# xmcd
#
# Track frame offsets: 
#        150
#        16135
#        31987
#        63450
#        93875
#        130625
#
# Disc length: 2189 seconds
#
# Revision: 0
# Processed by: cddbd v1.5.1PL2 Copyright (c) Steve Scherf et al.
# Submitted via: ExactAudioCopy v0.95a5
#
DISCID=3e088b06
DTITLE=O.C. Project - Close your eyes 2002
DYEAR=1900
DGENRE=
TTITLE0=plug´n play radio edit
TTITLE1=O.C.P. radio edit
TTITLE2=avancada remix
TTITLE3=lars palmas remix
TTITLE4=plug´n´play extended mix
TTITLE5=O.C.P. extended mix
EXTD=
EXTT0=
EXTT1=
EXTT2=
EXTT3=
EXTT4=
EXTT5=
PLAYORDER=
